<svg width="18" height="18" viewBox="0 0 18 18" fill="none" xmlns="http://www.w3.org/2000/svg">
<g clip-path="url(#clip0_1_1140)">
<path d="M13.4956 1.71429C12.5801 0.896451 11.459 0.343732 10.2528 0.115618C9.04664 -0.112497 7.80109 -0.00736837 6.65021 0.419689C5.49933 0.846745 4.4867 1.57956 3.72129 2.53927C2.95588 3.49898 2.46667 4.64926 2.30632 5.86629C2.1623 6.93343 2.27748 8.01956 2.64211 9.03275C3.00673 10.0459 3.61007 10.9564 4.40107 11.687C4.89022 12.116 5.28493 12.6419 5.56018 13.2314C5.83543 13.8209 5.98523 14.4611 6.00007 15.1115V15.2323C6.00086 15.966 6.29269 16.6695 6.81153 17.1883C7.33036 17.7072 8.03383 17.999 8.76757 17.9998H9.23257C9.96631 17.999 10.6698 17.7072 11.1886 17.1883C11.7074 16.6695 11.9993 15.966 12.0001 15.2323V14.8205C12.0113 14.2456 12.1466 13.6799 12.3967 13.1622C12.6468 12.6444 13.0057 12.1867 13.4491 11.8205C14.168 11.1909 14.7449 10.4156 15.1417 9.54615C15.5384 8.67668 15.7458 7.73284 15.7502 6.77715C15.7546 5.82146 15.5558 4.87575 15.1672 4.00266C14.7785 3.12958 14.2087 2.34905 13.4956 1.71279V1.71429ZM9.23257 16.4998H8.76757C8.43153 16.4994 8.10937 16.3657 7.87175 16.1281C7.63413 15.8905 7.50047 15.5683 7.50007 15.2323C7.50007 15.2323 7.49482 15.0373 7.49407 14.9998H10.5001V15.2323C10.4997 15.5683 10.366 15.8905 10.1284 16.1281C9.89077 16.3657 9.56861 16.4994 9.23257 16.4998ZM12.4576 10.694C11.6036 11.4347 10.9869 12.4106 10.6846 13.4998H9.75007V8.11179C10.1872 7.95723 10.566 7.67137 10.8345 7.29332C11.103 6.91527 11.2481 6.46349 11.2501 5.99979C11.2501 5.80088 11.1711 5.61012 11.0304 5.46946C10.8897 5.32881 10.699 5.24979 10.5001 5.24979C10.3012 5.24979 10.1104 5.32881 9.96974 5.46946C9.82909 5.61012 9.75007 5.80088 9.75007 5.99979C9.75007 6.19871 9.67105 6.38947 9.5304 6.53012C9.38975 6.67078 9.19898 6.74979 9.00007 6.74979C8.80116 6.74979 8.61039 6.67078 8.46974 6.53012C8.32909 6.38947 8.25007 6.19871 8.25007 5.99979C8.25007 5.80088 8.17105 5.61012 8.0304 5.46946C7.88975 5.32881 7.69898 5.24979 7.50007 5.24979C7.30116 5.24979 7.11039 5.32881 6.96974 5.46946C6.82909 5.61012 6.75007 5.80088 6.75007 5.99979C6.75199 6.46349 6.89713 6.91527 7.16563 7.29332C7.43414 7.67137 7.81289 7.95723 8.25007 8.11179V13.4998H7.25857C6.92031 12.3817 6.28591 11.3759 5.42257 10.589C4.68978 9.90624 4.16761 9.02807 3.91767 8.05816C3.66773 7.08825 3.70045 6.06708 4.01198 5.11516C4.3235 4.16325 4.90082 3.32031 5.67582 2.68582C6.45081 2.05133 7.39114 1.65177 8.38582 1.53429C8.59202 1.51128 8.79934 1.49976 9.00682 1.49979C10.295 1.49596 11.5386 1.97126 12.4958 2.83329C13.0506 3.32799 13.4939 3.93496 13.7963 4.61396C14.0987 5.29297 14.2533 6.02849 14.2499 6.77178C14.2465 7.51508 14.0851 8.24916 13.7765 8.92536C13.4679 9.60157 13.0191 10.2044 12.4598 10.694H12.4576Z" fill="white"/>
</g>
<defs>
<clipPath id="clip0_1_1140">
<rect width="18" height="18" fill="white"/>
</clipPath>
</defs>
</svg>
