<svg width="32" height="32" viewBox="0 0 32 32" fill="none" xmlns="http://www.w3.org/2000/svg">
<path fill-rule="evenodd" clip-rule="evenodd" d="M4 22.4933V12.3427H28V22.5747C28 26.76 25.3655 29.3333 21.1504 29.3333H10.8364C6.66081 29.3333 4 26.7067 4 22.4933ZM10.6125 19.2133C10.0066 19.2413 9.50604 18.76 9.4797 18.148C9.4797 17.5347 9.9539 17.028 10.5598 17C11.1526 17 11.64 17.468 11.6531 18.0667C11.6795 18.6813 11.2053 19.188 10.6125 19.2133ZM16.0263 19.2133C15.4204 19.2413 14.9199 18.76 14.8935 18.148C14.8935 17.5347 15.3677 17.028 15.9736 17C16.5664 17 17.0538 17.468 17.067 18.0667C17.0933 18.6813 16.6191 19.188 16.0263 19.2133ZM21.4007 24.12C20.7947 24.1067 20.3074 23.6 20.3074 22.9867C20.2942 22.3733 20.7816 21.868 21.3875 21.8547H21.4007C22.0198 21.8547 22.5203 22.3613 22.5203 22.9867C22.5203 23.6133 22.0198 24.12 21.4007 24.12ZM14.8935 22.9866C14.9199 23.6 15.4204 24.0813 16.0263 24.0533C16.6191 24.028 17.0933 23.5213 17.067 22.908C17.0538 22.308 16.5664 21.84 15.9736 21.84C15.3677 21.868 14.8935 22.3733 14.8935 22.9866ZM9.46651 22.9866C9.49286 23.6 9.99341 24.0813 10.5993 24.0533C11.1921 24.028 11.6663 23.5213 11.6399 22.908C11.6268 22.308 11.1394 21.84 10.5466 21.84C9.94072 21.868 9.46651 22.3733 9.46651 22.9866ZM20.3205 18.1346C20.3205 17.5213 20.7947 17.028 21.4006 17.0146C21.9934 17.0146 22.4676 17.4933 22.494 18.0813C22.5071 18.6946 22.0329 19.2013 21.4402 19.2133C20.8342 19.2266 20.3337 18.76 20.3205 18.148V18.1346Z" fill="white"/>
<path opacity="0.4" d="M4.00449 12.3425C4.02161 11.5599 4.08747 10.0065 4.21129 9.50653C4.84356 6.69453 6.99066 4.90786 10.0598 4.6532H21.9413C24.9841 4.9212 27.1575 6.71987 27.7898 9.50653C27.9123 9.9932 27.9781 11.5585 27.9953 12.3425H4.00449Z" fill="white"/>
<path d="M11.0731 8.78666C11.6527 8.78666 12.0874 8.34799 12.0874 7.75999V3.69466C12.0874 3.10666 11.6527 2.66666 11.0731 2.66666C10.4936 2.66666 10.0589 3.10666 10.0589 3.69466V7.75999C10.0589 8.34799 10.4936 8.78666 11.0731 8.78666Z" fill="white"/>
<path d="M20.9266 8.78666C21.493 8.78666 21.9409 8.34799 21.9409 7.75999V3.69466C21.9409 3.10666 21.493 2.66666 20.9266 2.66666C20.347 2.66666 19.9123 3.10666 19.9123 3.69466V7.75999C19.9123 8.34799 20.347 8.78666 20.9266 8.78666Z" fill="white"/>
</svg>
