<svg width="310" height="13" viewBox="0 0 310 13" fill="none" xmlns="http://www.w3.org/2000/svg">
<path d="M4.65953 10.12C4.03953 10.12 3.51953 9.94 3.09953 9.58C2.6862 9.21333 2.47953 8.69667 2.47953 8.03H3.63953C3.63953 8.34333 3.73953 8.59 3.93953 8.77C4.13953 8.94333 4.37953 9.03 4.65953 9.03C4.9462 9.03 5.18286 8.94 5.36953 8.76C5.56286 8.58 5.65953 8.31 5.65953 7.95V2.9H6.82953V8.05C6.82953 8.74333 6.62286 9.26333 6.20953 9.61C5.80286 9.95 5.2862 10.12 4.65953 10.12ZM10.3427 10.1C9.66273 10.1 9.0894 9.84667 8.62273 9.34C8.16273 8.83333 7.93273 8.22 7.93273 7.5C7.93273 6.78 8.16273 6.16667 8.62273 5.66C9.0894 5.15333 9.66273 4.9 10.3427 4.9C10.6827 4.9 10.9961 4.97667 11.2827 5.13C11.5694 5.27667 11.7894 5.45667 11.9427 5.67V5H13.0427V10H11.9427V9.33C11.7894 9.54333 11.5694 9.72667 11.2827 9.88C10.9961 10.0267 10.6827 10.1 10.3427 10.1ZM9.47273 8.64C9.75273 8.94667 10.1094 9.1 10.5427 9.1C10.9761 9.1 11.3327 8.94667 11.6127 8.64C11.8927 8.33333 12.0327 7.95333 12.0327 7.5C12.0327 7.04667 11.8927 6.66667 11.6127 6.36C11.3327 6.05333 10.9761 5.9 10.5427 5.9C10.1094 5.9 9.75273 6.05333 9.47273 6.36C9.19273 6.66667 9.05273 7.04667 9.05273 7.5C9.05273 7.95333 9.19273 8.33333 9.47273 8.64ZM14.533 10V5H15.633V5.68C15.9463 5.16 16.453 4.9 17.153 4.9C17.733 4.9 18.1963 5.09 18.543 5.47C18.8896 5.85 19.063 6.35667 19.063 6.99V10H17.963V7.17C17.963 6.77 17.8696 6.46 17.683 6.24C17.4963 6.01333 17.243 5.9 16.923 5.9C16.543 5.9 16.233 6.04333 15.993 6.33C15.753 6.61667 15.633 7.02 15.633 7.54V10H14.533Z" fill="#919191"/>
<path d="M39.3837 10V2.9H43.6037V4.02H40.5537V5.85H42.9537V6.96H40.5537V10H39.3837ZM46.4453 10.1C45.6853 10.1 45.0586 9.85667 44.5653 9.37C44.0786 8.88333 43.8353 8.26 43.8353 7.5C43.8353 6.76 44.082 6.14333 44.5753 5.65C45.0686 5.15 45.692 4.9 46.4453 4.9C47.1386 4.9 47.712 5.12 48.1653 5.56C48.6253 6 48.8553 6.60667 48.8553 7.38C48.8553 7.51333 48.852 7.63333 48.8453 7.74H44.9153C44.942 8.14667 45.0986 8.47667 45.3853 8.73C45.672 8.97667 46.0286 9.1 46.4553 9.1C47.0953 9.1 47.572 8.84667 47.8853 8.34L48.7253 8.94C48.2453 9.71333 47.4853 10.1 46.4453 10.1ZM44.9653 6.94H47.7453C47.6853 6.59333 47.5286 6.32333 47.2753 6.13C47.0286 5.93 46.7386 5.83 46.4053 5.83C46.0586 5.83 45.7486 5.92667 45.4753 6.12C45.2086 6.31333 45.0386 6.58667 44.9653 6.94ZM52.6961 10.1C52.3561 10.1 52.0394 10.0267 51.7461 9.88C51.4594 9.72667 51.2394 9.54333 51.0861 9.33V10H49.9861V2.5H51.0861V5.67C51.2394 5.45667 51.4594 5.27667 51.7461 5.13C52.0394 4.97667 52.3561 4.9 52.6961 4.9C53.3761 4.9 53.9461 5.15333 54.4061 5.66C54.8728 6.16667 55.1061 6.78 55.1061 7.5C55.1061 8.22 54.8728 8.83333 54.4061 9.34C53.9461 9.84667 53.3761 10.1 52.6961 10.1ZM52.4961 9.1C52.9294 9.1 53.2861 8.94667 53.5661 8.64C53.8461 8.33333 53.9861 7.95333 53.9861 7.5C53.9861 7.04667 53.8461 6.66667 53.5661 6.36C53.2861 6.05333 52.9294 5.9 52.4961 5.9C52.0561 5.9 51.6961 6.05333 51.4161 6.36C51.1361 6.66667 50.9961 7.04667 50.9961 7.5C50.9961 7.95333 51.1361 8.33333 51.4161 8.64C51.6961 8.94667 52.0561 9.1 52.4961 9.1Z" fill="#919191"/>
<path d="M74.4755 2.9H75.5455L78.0255 6.26L80.5155 2.9H81.5855V10H80.4055V4.91L78.0355 8.13L75.6455 4.9V10H74.4755V2.9ZM85.1455 10.1C84.4655 10.1 83.8921 9.84667 83.4255 9.34C82.9655 8.83333 82.7355 8.22 82.7355 7.5C82.7355 6.78 82.9655 6.16667 83.4255 5.66C83.8921 5.15333 84.4655 4.9 85.1455 4.9C85.4855 4.9 85.7988 4.97667 86.0855 5.13C86.3721 5.27667 86.5921 5.45667 86.7455 5.67V5H87.8455V10H86.7455V9.33C86.5921 9.54333 86.3721 9.72667 86.0855 9.88C85.7988 10.0267 85.4855 10.1 85.1455 10.1ZM84.2755 8.64C84.5555 8.94667 84.9121 9.1 85.3455 9.1C85.7788 9.1 86.1355 8.94667 86.4155 8.64C86.6955 8.33333 86.8355 7.95333 86.8355 7.5C86.8355 7.04667 86.6955 6.66667 86.4155 6.36C86.1355 6.05333 85.7788 5.9 85.3455 5.9C84.9121 5.9 84.5555 6.05333 84.2755 6.36C83.9955 6.66667 83.8555 7.04667 83.8555 7.5C83.8555 7.95333 83.9955 8.33333 84.2755 8.64ZM89.3357 10V5H90.4357V5.89C90.529 5.61 90.699 5.38333 90.9457 5.21C91.199 5.03667 91.469 4.95 91.7557 4.95C91.929 4.95 92.0724 4.96333 92.1857 4.99V6.12C92.0257 6.06 91.8424 6.03 91.6357 6.03C91.3024 6.03 91.019 6.16667 90.7857 6.44C90.5524 6.70667 90.4357 7.08 90.4357 7.56V10H89.3357Z" fill="#919191"/>
<path d="M110.368 10L113.468 2.9H114.488L117.588 10H116.368L115.558 8.14H112.378L111.578 10H110.368ZM113.968 4.48L112.828 7.1H115.108L113.968 4.48ZM119.473 12.09H118.373V5H119.473V5.67C119.626 5.45667 119.846 5.27667 120.133 5.13C120.426 4.97667 120.743 4.9 121.083 4.9C121.763 4.9 122.333 5.15333 122.793 5.66C123.259 6.16667 123.493 6.78 123.493 7.5C123.493 8.22 123.259 8.83333 122.793 9.34C122.333 9.84667 121.763 10.1 121.083 10.1C120.743 10.1 120.426 10.0267 120.133 9.88C119.846 9.72667 119.626 9.54333 119.473 9.33V12.09ZM120.883 9.1C121.316 9.1 121.673 8.94667 121.953 8.64C122.233 8.33333 122.373 7.95333 122.373 7.5C122.373 7.04667 122.233 6.66667 121.953 6.36C121.673 6.05333 121.316 5.9 120.883 5.9C120.443 5.9 120.083 6.05333 119.803 6.36C119.523 6.66667 119.383 7.04667 119.383 7.5C119.383 7.95333 119.523 8.33333 119.803 8.64C120.083 8.94667 120.443 9.1 120.883 9.1ZM124.613 10V5H125.713V5.89C125.806 5.61 125.976 5.38333 126.223 5.21C126.476 5.03667 126.746 4.95 127.033 4.95C127.206 4.95 127.35 4.96333 127.463 4.99V6.12C127.303 6.06 127.12 6.03 126.913 6.03C126.58 6.03 126.296 6.16667 126.063 6.44C125.83 6.70667 125.713 7.08 125.713 7.56V10H124.613Z" fill="#919191"/>
<path d="M145.587 2.9H146.657L149.137 6.26L151.627 2.9H152.697V10H151.517V4.91L149.147 8.13L146.757 4.9V10H145.587V2.9ZM156.257 10.1C155.577 10.1 155.003 9.84667 154.537 9.34C154.077 8.83333 153.847 8.22 153.847 7.5C153.847 6.78 154.077 6.16667 154.537 5.66C155.003 5.15333 155.577 4.9 156.257 4.9C156.597 4.9 156.91 4.97667 157.197 5.13C157.483 5.27667 157.703 5.45667 157.857 5.67V5H158.957V10H157.857V9.33C157.703 9.54333 157.483 9.72667 157.197 9.88C156.91 10.0267 156.597 10.1 156.257 10.1ZM155.387 8.64C155.667 8.94667 156.023 9.1 156.457 9.1C156.89 9.1 157.247 8.94667 157.527 8.64C157.807 8.33333 157.947 7.95333 157.947 7.5C157.947 7.04667 157.807 6.66667 157.527 6.36C157.247 6.05333 156.89 5.9 156.457 5.9C156.023 5.9 155.667 6.05333 155.387 6.36C155.107 6.66667 154.967 7.04667 154.967 7.5C154.967 7.95333 155.107 8.33333 155.387 8.64ZM162.047 12.09H160.837L161.907 9.73L159.757 5H160.967L162.497 8.54L164.037 5H165.257L162.047 12.09Z" fill="#919191"/>
<path d="M184.874 10.12C184.254 10.12 183.734 9.94 183.314 9.58C182.901 9.21333 182.694 8.69667 182.694 8.03H183.854C183.854 8.34333 183.954 8.59 184.154 8.77C184.354 8.94333 184.594 9.03 184.874 9.03C185.161 9.03 185.398 8.94 185.584 8.76C185.778 8.58 185.874 8.31 185.874 7.95V2.9H187.044V8.05C187.044 8.74333 186.838 9.26333 186.424 9.61C186.018 9.95 185.501 10.12 184.874 10.12ZM190.278 10.1C189.705 10.1 189.251 9.91 188.918 9.53C188.585 9.14333 188.418 8.63 188.418 7.99V5H189.518V7.81C189.518 8.21 189.605 8.52667 189.778 8.76C189.951 8.98667 190.198 9.1 190.518 9.1C190.891 9.1 191.188 8.96 191.408 8.68C191.628 8.39333 191.738 7.98667 191.738 7.46V5H192.838V10H191.738V9.32C191.445 9.84 190.958 10.1 190.278 10.1ZM194.318 10V5H195.418V5.68C195.731 5.16 196.238 4.9 196.938 4.9C197.518 4.9 197.981 5.09 198.328 5.47C198.675 5.85 198.848 6.35667 198.848 6.99V10H197.748V7.17C197.748 6.77 197.655 6.46 197.468 6.24C197.281 6.01333 197.028 5.9 196.708 5.9C196.328 5.9 196.018 6.04333 195.778 6.33C195.538 6.61667 195.418 7.02 195.418 7.54V10H194.318Z" fill="#919191"/>
<path d="M222.554 10.12C221.934 10.12 221.414 9.94 220.994 9.58C220.581 9.21333 220.374 8.69667 220.374 8.03H221.534C221.534 8.34333 221.634 8.59 221.834 8.77C222.034 8.94333 222.274 9.03 222.554 9.03C222.841 9.03 223.077 8.94 223.264 8.76C223.457 8.58 223.554 8.31 223.554 7.95V2.9H224.724V8.05C224.724 8.74333 224.517 9.26333 224.104 9.61C223.697 9.95 223.181 10.12 222.554 10.12ZM227.958 10.1C227.384 10.1 226.931 9.91 226.598 9.53C226.264 9.14333 226.098 8.63 226.098 7.99V5H227.198V7.81C227.198 8.21 227.284 8.52667 227.458 8.76C227.631 8.98667 227.878 9.1 228.198 9.1C228.571 9.1 228.868 8.96 229.088 8.68C229.308 8.39333 229.418 7.98667 229.418 7.46V5H230.518V10H229.418V9.32C229.124 9.84 228.638 10.1 227.958 10.1ZM231.998 10V2.5H233.098V10H231.998Z" fill="#919191"/>
<path d="M253.421 10L256.521 2.9H257.541L260.641 10H259.421L258.611 8.14H255.431L254.631 10H253.421ZM257.021 4.48L255.881 7.1H258.161L257.021 4.48ZM263.089 10.1C262.515 10.1 262.062 9.91 261.729 9.53C261.395 9.14333 261.229 8.63 261.229 7.99V5H262.329V7.81C262.329 8.21 262.415 8.52667 262.589 8.76C262.762 8.98667 263.009 9.1 263.329 9.1C263.702 9.1 263.999 8.96 264.219 8.68C264.439 8.39333 264.549 7.98667 264.549 7.46V5H265.649V10H264.549V9.32C264.255 9.84 263.769 10.1 263.089 10.1ZM268.319 8.53C268.605 8.81667 268.959 8.96 269.379 8.96C269.799 8.96 270.152 8.81667 270.439 8.53C270.725 8.23667 270.869 7.87 270.869 7.43C270.869 6.99 270.725 6.62667 270.439 6.34C270.152 6.04667 269.799 5.9 269.379 5.9C268.959 5.9 268.605 6.04667 268.319 6.34C268.032 6.62667 267.889 6.99 267.889 7.43C267.889 7.87 268.032 8.23667 268.319 8.53ZM269.279 12.19C268.792 12.19 268.342 12.1067 267.929 11.94C267.515 11.78 267.185 11.5567 266.939 11.27L267.609 10.48C268.055 10.9667 268.609 11.21 269.269 11.21C269.702 11.21 270.062 11.07 270.349 10.79C270.635 10.5167 270.779 10.1367 270.779 9.65V9.19C270.619 9.41667 270.395 9.60333 270.109 9.75C269.822 9.89667 269.512 9.97 269.179 9.97C268.505 9.97 267.935 9.72667 267.469 9.24C267.009 8.74667 266.779 8.14333 266.779 7.43C266.779 6.72333 267.009 6.12667 267.469 5.64C267.935 5.14667 268.505 4.9 269.179 4.9C269.512 4.9 269.822 4.97333 270.109 5.12C270.395 5.26 270.619 5.44333 270.779 5.67V5H271.879V9.66C271.879 10.4933 271.639 11.1233 271.159 11.55C270.685 11.9767 270.059 12.19 269.279 12.19Z" fill="#919191"/>
<path d="M293.022 10.12C292.455 10.12 291.945 10.0033 291.492 9.77C291.039 9.53667 290.705 9.22667 290.492 8.84L291.412 8.11C291.805 8.71667 292.355 9.02 293.062 9.02C293.402 9.02 293.679 8.94 293.892 8.78C294.105 8.61333 294.212 8.4 294.212 8.14C294.212 7.66667 293.875 7.30667 293.202 7.06L292.422 6.78C291.849 6.57333 291.425 6.31 291.152 5.99C290.879 5.66333 290.742 5.26 290.742 4.78C290.742 4.17333 290.959 3.69 291.392 3.33C291.825 2.96333 292.379 2.78 293.052 2.78C293.952 2.78 294.669 3.10333 295.202 3.75L294.392 4.54C294.025 4.1 293.575 3.88 293.042 3.88C292.729 3.88 292.462 3.95333 292.242 4.1C292.029 4.24667 291.922 4.44667 291.922 4.7C291.922 4.94667 292.002 5.14333 292.162 5.29C292.329 5.43 292.609 5.57333 293.002 5.72L293.722 5.99C294.269 6.19667 294.685 6.46667 294.972 6.8C295.259 7.13333 295.399 7.55667 295.392 8.07C295.392 8.68333 295.172 9.18 294.732 9.56C294.292 9.93333 293.722 10.12 293.022 10.12ZM298.787 10.1C298.027 10.1 297.4 9.85667 296.907 9.37C296.42 8.88333 296.177 8.26 296.177 7.5C296.177 6.76 296.424 6.14333 296.917 5.65C297.41 5.15 298.034 4.9 298.787 4.9C299.48 4.9 300.054 5.12 300.507 5.56C300.967 6 301.197 6.60667 301.197 7.38C301.197 7.51333 301.194 7.63333 301.187 7.74H297.257C297.284 8.14667 297.44 8.47667 297.727 8.73C298.014 8.97667 298.37 9.1 298.797 9.1C299.437 9.1 299.914 8.84667 300.227 8.34L301.067 8.94C300.587 9.71333 299.827 10.1 298.787 10.1ZM297.307 6.94H300.087C300.027 6.59333 299.87 6.32333 299.617 6.13C299.37 5.93 299.08 5.83 298.747 5.83C298.4 5.83 298.09 5.92667 297.817 6.12C297.55 6.31333 297.38 6.58667 297.307 6.94ZM303.428 12.09H302.328V5H303.428V5.67C303.581 5.45667 303.801 5.27667 304.088 5.13C304.381 4.97667 304.698 4.9 305.038 4.9C305.718 4.9 306.288 5.15333 306.748 5.66C307.215 6.16667 307.448 6.78 307.448 7.5C307.448 8.22 307.215 8.83333 306.748 9.34C306.288 9.84667 305.718 10.1 305.038 10.1C304.698 10.1 304.381 10.0267 304.088 9.88C303.801 9.72667 303.581 9.54333 303.428 9.33V12.09ZM304.838 9.1C305.271 9.1 305.628 8.94667 305.908 8.64C306.188 8.33333 306.328 7.95333 306.328 7.5C306.328 7.04667 306.188 6.66667 305.908 6.36C305.628 6.05333 305.271 5.9 304.838 5.9C304.398 5.9 304.038 6.05333 303.758 6.36C303.478 6.66667 303.338 7.04667 303.338 7.5C303.338 7.95333 303.478 8.33333 303.758 8.64C304.038 8.94667 304.398 9.1 304.838 9.1Z" fill="#919191"/>
</svg>
