<svg width="18" height="18" viewBox="0 0 18 18" fill="none" xmlns="http://www.w3.org/2000/svg">
<g clip-path="url(#clip0_1_1143)">
<path d="M11.9996 5.99986C11.8589 5.85926 11.6682 5.78027 11.4693 5.78027C11.2705 5.78027 11.0797 5.85926 10.9391 5.99986L8.99959 7.93936L7.06009 5.99986C6.91864 5.86324 6.72919 5.78765 6.53254 5.78936C6.3359 5.79107 6.14779 5.86994 6.00873 6.009C5.86968 6.14806 5.7908 6.33616 5.78909 6.53281C5.78738 6.72946 5.86298 6.91891 5.9996 7.06036L7.93909 8.99986L5.9996 10.9394C5.86298 11.0808 5.78738 11.2703 5.78909 11.4669C5.7908 11.6636 5.86968 11.8517 6.00873 11.9907C6.14779 12.1298 6.3359 12.2087 6.53254 12.2104C6.72919 12.2121 6.91864 12.1365 7.06009 11.9999L8.99959 10.0604L10.9391 11.9999C11.0805 12.1365 11.27 12.2121 11.4666 12.2104C11.6633 12.2087 11.8514 12.1298 11.9904 11.9907C12.1295 11.8517 12.2084 11.6636 12.2101 11.4669C12.2118 11.2703 12.1362 11.0808 11.9996 10.9394L10.0601 8.99986L11.9996 7.06036C12.1402 6.91972 12.2192 6.72899 12.2192 6.53011C12.2192 6.33124 12.1402 6.14051 11.9996 5.99986Z" fill="white"/>
<path d="M9 0C7.21997 0 5.47991 0.527841 3.99987 1.51677C2.51983 2.50571 1.36628 3.91131 0.685088 5.55585C0.00389957 7.20038 -0.17433 9.00998 0.172937 10.7558C0.520204 12.5016 1.37737 14.1053 2.63604 15.364C3.89472 16.6226 5.49836 17.4798 7.24419 17.8271C8.99002 18.1743 10.7996 17.9961 12.4442 17.3149C14.0887 16.6337 15.4943 15.4802 16.4832 14.0001C17.4722 12.5201 18 10.78 18 9C17.9974 6.61384 17.0484 4.32616 15.3611 2.63889C13.6738 0.951621 11.3862 0.00258081 9 0V0ZM9 16.5C7.51664 16.5 6.0666 16.0601 4.83323 15.236C3.59986 14.4119 2.63856 13.2406 2.07091 11.8701C1.50325 10.4997 1.35473 8.99168 1.64411 7.53682C1.9335 6.08197 2.64781 4.74559 3.6967 3.6967C4.7456 2.64781 6.08197 1.9335 7.53683 1.64411C8.99168 1.35472 10.4997 1.50325 11.8701 2.0709C13.2406 2.63856 14.4119 3.59985 15.236 4.83322C16.0601 6.06659 16.5 7.51664 16.5 9C16.4978 10.9885 15.7069 12.8948 14.3009 14.3009C12.8948 15.7069 10.9885 16.4978 9 16.5Z" fill="white"/>
</g>
<defs>
<clipPath id="clip0_1_1143">
<rect width="18" height="18" fill="white"/>
</clipPath>
</defs>
</svg>
