<svg width="24" height="24" viewBox="0 0 24 24" fill="none" xmlns="http://www.w3.org/2000/svg">
<path fill-rule="evenodd" clip-rule="evenodd" d="M4.23914 10.3913C4.25355 6.15071 7.7029 2.72471 11.9435 2.73912C16.1841 2.75353 19.6101 6.20288 19.5957 10.4435V10.5304C19.5435 13.2869 18.0043 15.8348 16.1174 17.8261C15.0382 18.9467 13.8331 19.9388 12.5261 20.7826C12.1766 21.0849 11.6582 21.0849 11.3087 20.7826C9.36021 19.5143 7.65008 17.9131 6.25653 16.0522C5.01449 14.4294 4.30931 12.4597 4.23914 10.4174V10.3913Z" stroke="#3D3D3D" stroke-width="1.5" stroke-linecap="round" stroke-linejoin="round"/>
<path d="M11.9174 13C13.2765 13 14.3783 11.8982 14.3783 10.5391C14.3783 9.17999 13.2765 8.07822 11.9174 8.07822C10.5583 8.07822 9.45654 9.17999 9.45654 10.5391C9.45654 11.8982 10.5583 13 11.9174 13Z" stroke="#3D3D3D" stroke-width="1.5" stroke-linecap="round" stroke-linejoin="round"/>
</svg>
