<svg width="32" height="32" viewBox="0 0 32 32" fill="none" xmlns="http://www.w3.org/2000/svg">
<path fill-rule="evenodd" clip-rule="evenodd" d="M24.9428 11.7284C24.9428 13.4031 25.3853 14.39 26.3593 15.5275C27.0975 16.3655 27.3333 17.4411 27.3333 18.608C27.3333 19.7736 26.9504 20.8801 26.1831 21.7785C25.1787 22.8556 23.762 23.5431 22.3163 23.6627C20.2212 23.8412 18.1249 23.9916 16.0007 23.9916C13.8751 23.9916 11.7801 23.9017 9.68499 23.6627C8.23794 23.5431 6.82135 22.8556 5.81822 21.7785C5.05095 20.8801 4.66666 19.7736 4.66666 18.608C4.66666 17.4411 4.90386 16.3655 5.64064 15.5275C6.64511 14.39 7.05855 13.4031 7.05855 11.7284V11.1604C7.05855 8.91778 7.61776 7.45135 8.76932 6.0158C10.4814 3.92226 13.2258 2.66666 15.9411 2.66666H16.0603C18.8339 2.66666 21.6669 3.98268 23.35 6.1662C24.4419 7.5722 24.9428 8.97686 24.9428 11.1604V11.7284ZM12.0982 26.7477C12.0982 26.0764 12.7144 25.7688 13.2842 25.6372C13.9508 25.4963 18.0124 25.4963 18.6789 25.6372C19.2488 25.7688 19.8649 26.0764 19.8649 26.7477C19.8317 27.3869 19.4568 27.9537 18.9387 28.3136C18.2668 28.8373 17.4784 29.1689 16.6541 29.2885C16.1983 29.3476 15.7504 29.3489 15.3104 29.2885C14.4848 29.1689 13.6964 28.8373 13.0258 28.3123C12.5064 27.9537 12.1314 27.3869 12.0982 26.7477Z" fill="white"/>
</svg>
