<svg width="32" height="32" viewBox="0 0 32 32" fill="none" xmlns="http://www.w3.org/2000/svg">
<path fill-rule="evenodd" clip-rule="evenodd" d="M9.7736 2.66681H22.2136C26.7469 2.66681 29.3336 5.22681 29.3336 9.77348V22.2268C29.3336 26.7468 26.7603 29.3335 22.2269 29.3335H9.7736C5.22693 29.3335 2.66693 26.7468 2.66693 22.2268V9.77348C2.66693 5.22681 5.22693 2.66681 9.7736 2.66681ZM17.0936 17.1068H20.8803C21.4936 17.0935 21.9869 16.6001 21.9869 15.9868C21.9869 15.3735 21.4936 14.8801 20.8803 14.8801H17.0936V11.1201C17.0936 10.5068 16.6003 10.0135 15.9869 10.0135C15.3736 10.0135 14.8803 10.5068 14.8803 11.1201V14.8801H11.1069C10.8136 14.8801 10.5336 15.0001 10.3203 15.2001C10.1203 15.4135 10.0003 15.6921 10.0003 15.9868C10.0003 16.6001 10.4936 17.0935 11.1069 17.1068H14.8803V20.8801C14.8803 21.4935 15.3736 21.9868 15.9869 21.9868C16.6003 21.9868 17.0936 21.4935 17.0936 20.8801V17.1068Z" fill="white"/>
</svg>
