<svg width="24" height="24" viewBox="0 0 24 24" fill="none" xmlns="http://www.w3.org/2000/svg">
<g clip-path="url(#clip0_1_1040)">
<path d="M12 14.9922C10.3432 14.9922 9 16.3353 9 17.9922V23.9922H15V17.9922C15 16.3353 13.6568 14.9922 12 14.9922Z" fill="#4545FE"/>
<path d="M17 17.9929V23.9929H21C22.6568 23.9929 24 22.6497 24 20.9929V11.8719C24.0002 11.3524 23.7983 10.8532 23.437 10.4799L14.939 1.29285C13.4396 -0.329491 10.9089 -0.4291 9.28655 1.07034C9.20949 1.14159 9.13523 1.21579 9.06403 1.29285L0.581016 10.4769C0.208734 10.8517 -0.000140554 11.3586 7.09607e-08 11.8869V20.9929C7.09607e-08 22.6497 1.34316 23.9929 3 23.9929H6.99998V17.9929C7.01869 15.2661 9.22027 13.0393 11.8784 12.9752C14.6255 12.9089 16.9791 15.1736 17 17.9929Z" fill="#4545FE"/>
<path d="M12 14.9922C10.3432 14.9922 9 16.3353 9 17.9922V23.9922H15V17.9922C15 16.3353 13.6568 14.9922 12 14.9922Z" fill="#4545FE"/>
</g>
<defs>
<clipPath id="clip0_1_1040">
<rect width="24" height="24" fill="white"/>
</clipPath>
</defs>
</svg>
